<svg id="Layer_1" data-name="Layer 1" xmlns="http://www.w3.org/2000/svg" viewBox="0 0 500 500"><defs><style>.cls-1{fill:#7cabd5;}.cls-2{fill:#1f6094;}.cls-3{fill:#235b8d;}.cls-4{fill:#f89f35;}.cls-5{fill:#fa9a37;}</style></defs><path class="cls-1" d="M83.93,292.44c-4.82-4.63-26.24-34.93-26.24-34.93V255a32,32,0,0,0,17.36-20.82c4.43-15.83-8.29-31.85-26.63-31.85H0v6.56s13.5,0,13.5,7v72.55s1.16,7.33-13.5,7.33v7.72H42.83v-7.52s-13.71.57-13.71-8.88V260.22h9.27s3.28,0,6,5,17.75,38.21,34,38.21h13.5v-6.38S88.75,297.06,83.93,292.44Zm-40.24-40.9H28.93V211.79s7.34-3.47,14.48-1.16,15.05,7.12,15.05,20.05S48,251.54,43.69,251.54Z"/><path class="cls-2" d="M104.57,203.69h71.19v25.46H169s-.77-17-12.35-17H134.09V247.1h20a6.46,6.46,0,0,0,5.67-3.31c1-1.89,1.89-4.83,1.89-9.43h6.94v34.73h-6.75s0-12-5.79-12H133.9v32.22s-.39,5.6,6.27,5.6h19.05a14.81,14.81,0,0,0,10.91-4.77,38.76,38.76,0,0,0,7.76-13.56l7.52,1.54-6.95,25.28H103.41v-6.95h8.88s6-.19,6-10.23v-70s-4-6.39-7.53-6.39h-6.17Z"/><path class="cls-2" d="M198.14,303.44h39.94v-7.72s-14.66.19-14.66-7.14V229.15L284.2,304.4h8.49V216s.77-7.71,12.92-7.33v-6.36H265.67v5.78s16.21,1.35,16.21,7.91v58.66L221.3,202.34H195.83v6.56s16.21-1,17,8.48c.65,7.94.21,53.3.05,67.63a10,10,0,0,1-6.2,9.24,22.75,22.75,0,0,1-8.52,1.47Z"/><path class="cls-3" d="M411.19,200.75v-3.2H351.63v3.2h9.24a10.61,10.61,0,0,1,7.48,3.09h0c1.74,1.73,56.34,105.47,56.34,105.47v-30l-36-66.59a10.85,10.85,0,0,1-1.13-7.48c.6-2.64,2.07-4.49,5.59-4.49Z"/><path class="cls-4" d="M500,169.05l-10.42,41.48-.83-18.9C455,226.16,424.69,309.31,424.69,309.31v-30C436.25,244.19,473.11,192,477.45,186l-15.65,2.38Z"/><path class="cls-5" d="M350.94,252.4c-1.26,88.44-73.16,160.75-161.59,162.47A165,165,0,0,1,33.85,313.55H65.43c.56,1.09,1.13,2.18,1.72,3.27,43.63,80.24,153.35,92.82,216.45,26.78A144.55,144.55,0,0,0,318.93,281c.13-.58.29-1.15.42-1.73a141.65,141.65,0,0,0,4.34-34.91c0-.33,0-.68,0-1-.54-80.09-67.48-144.85-150-144.85a153.65,153.65,0,0,0-29.31,2.79C95.53,110.67,55.2,143.19,36,186.6A3.23,3.23,0,0,1,33,188.52h0A164.92,164.92,0,0,1,350.94,252.4Z"/></svg>